---
config:
  layout: elk
  theme: base
  class:
    hideEmptyMembersBox: true
  themeVariables:
    primaryBorderColor: "#000000"
    primaryColor: "#C9E6F0"
---

classDiagram
direction LR


BundleReferenciar --> "1" SolicitudInterconsulta
link SolicitudInterconsulta "https://github.com/chris-f23/diagramas-fhir-tei/blob/main/docs/bundle-iniciar/SolicitudInterconsulta.mmd"


BundleReferenciar --> "1" RolProfesional: Referenciador
BundleReferenciar --> "1" RolProfesional: Atendedor
link RolProfesional "https://github.com/chris-f23/diagramas-fhir-tei/blob/main/docs/bundle-iniciar/RolProfesional.mmd"

BundleReferenciar --> "1" Profesional: Referenciador
link Profesional "https://github.com/chris-f23/diagramas-fhir-tei/blob/main/docs/bundle-iniciar/Profesional.mmd"

BundleReferenciar --> "1" EstablecimientoSalud: Referenciador
BundleReferenciar --> "1" EstablecimientoSalud: Atendedor
link EstablecimientoSalud "https://github.com/chris-f23/diagramas-fhir-tei/blob/main/docs/bundle-iniciar/EstablecimientoSalud.mmd"
