---
config:
  class:
    hideEmptyMembersBox: true
---
classDiagram
direction TB


class SolicitudInterconsulta { }
style SolicitudInterconsulta fill:#e4d6f5,stroke:#000000
link SolicitudInterconsulta "./SolicitudInterconsulta.mmd"
SolicitudInterconsulta "1" --> "*" SolicitudInterconsulta_Alergia

class SolicitudInterconsulta_Alergia {
  %% Identificador interno de la alergia.
  %% AllergyIntolerance.id
  + Id : UUID

  %% AllergyIntolerance.clinicalStatus
  + IdEstadoClinicoAlergia : UUID = NULL

  %% AllergyIntolerance.verificationStatus
  + IdEstadoVerificacionAlergia : UUID = NULL

  %% AllergyIntolerance.type
  + IdTipoAlergia: UUID = NULL

  %% AllergyIntolerance.criticality
  + IdCriticalidadAlergia : UUID = NULL

  %% AllergyIntolerance.code
  + IdAlergia : UUID

  %% Si es distinto de NULL debe tener la siguiente estructura:
  %% {
  %%   type: "PERIOD" | "DATETIME" | "AGE" | "STRING" | "RANGE"
  %%   value: any
  %% }
  %% Donde 'value' es del tipo indicado en 'type', correspondiente a uno de los tipos de datos de FHIR,
  %% Por ejemplo, el tipo 'DateTime' está definido en 'https://hl7.org/fhir/R4/datatypes.html#dateTime'.

  %% AllergyIntolerance.onset[FechaEstimadaAlergia.type] = FechaEstimadaAlergia.value
  + FechaEstimadaAlergia : JSON = NULL
}
style SolicitudInterconsulta_Alergia fill:#c5e1a5,stroke:#000000



class SolicitudInterconsulta_Alergia_EventoAdverso_Manifestacion {
  %% FK para llegar al padre.
  + IdSolicitudInterconsultaAlergiaEventoAdverso : UUID
  + IdManifestacionAlergia : UUID
}
style SolicitudInterconsulta_Alergia_EventoAdverso_Manifestacion fill:#c5e1a5,stroke:#000000


SolicitudInterconsulta_Alergia_EventoAdverso "1" --> "1..*" SolicitudInterconsulta_Alergia_EventoAdverso_Manifestacion


class SolicitudInterconsulta_Alergia_EventoAdverso {
  %% FK para llegar al padre.
  + IdSolicitudInterconsultaAlergia : UUID

  %% AllergyIntolerance.reaction
  + IdSeveridadAlergia : UUID
}
style SolicitudInterconsulta_Alergia_EventoAdverso fill:#c5e1a5,stroke:#000000

SolicitudInterconsulta_Alergia "1" --> "*" SolicitudInterconsulta_Alergia_EventoAdverso

class ManifestacionAlergia { <<ValueSet>> }
SolicitudInterconsulta_Alergia_EventoAdverso_Manifestacion "*" --> "1" ManifestacionAlergia
link ManifestacionAlergia "https://hl7.org/fhir/R4/valueset-clinical-findings.html"
style ManifestacionAlergia fill:#c5e1a5,stroke:#000000

class SeveridadEventoAdversoAlergia { <<ValueSet>> }
SolicitudInterconsulta_Alergia_EventoAdverso "*" --> "0..1" SeveridadEventoAdversoAlergia
link SeveridadAlergia "https://hl7.org/fhir/R4/valueset-reaction-event-severity.html"
style SeveridadEventoAdversoAlergia fill:#c5e1a5,stroke:#000000

class Alergia { <<ValueSet>> }
SolicitudInterconsulta_Alergia "*" --> "1" Alergia
link Alergia "https://hl7.org/fhir/R4/valueset-allergyintolerance-code.html"
style Alergia fill:#c5e1a5,stroke:#000000

class CriticalidadAlergia { <<ValueSet>> }
SolicitudInterconsulta_Alergia "*" --> "0..1" CriticalidadAlergia
link CriticalidadAlergia "https://hl7.org/fhir/R4/valueset-allergy-intolerance-criticality.html"
style CriticalidadAlergia fill:#c5e1a5,stroke:#000000

class TipoAlergia { <<ValueSet>> }
SolicitudInterconsulta_Alergia "*" --> "0..1" TipoAlergia
link TipoAlergia "https://hl7.org/fhir/R4/valueset-allergy-intolerance-type.html"
style TipoAlergia fill:#c5e1a5,stroke:#000000

class EstadoClinicoAlergia { <<ValueSet>> }
SolicitudInterconsulta_Alergia "*" --> "0..1" EstadoClinicoAlergia
link EstadoClinicoAlergia "https://hl7.org/fhir/R4/valueset-allergyintolerance-clinical.html"
style EstadoClinicoAlergia fill:#c5e1a5,stroke:#000000

class EstadoVerificacionAlergia { <<ValueSet>> }
SolicitudInterconsulta_Alergia "*" --> "0..1" EstadoVerificacionAlergia
link EstadoVerificacionAlergia "https://hl7.org/fhir/R4/valueset-allergyintolerance-verification.html"
style EstadoVerificacionAlergia fill:#c5e1a5,stroke:#000000