---
config:
  layout: elk
  theme: base
  class:
    hideEmptyMembersBox: true
  themeVariables:
    primaryBorderColor: "#000000"
    primaryColor: "#C9E6F0"
---

classDiagram
direction LR


BundleIniciar --> "1" SolicitudInterconsulta
link SolicitudInterconsulta "https://github.com/chris-f23/diagramas-fhir-tei/blob/main/docs/bundle-iniciar/SolicitudInterconsulta.mmd"

BundleIniciar --> "1" AtencionInicial
link AtencionInicial "https://github.com/chris-f23/diagramas-fhir-tei/blob/main/docs/bundle-iniciar/AtencionInicial.mmd"

BundleIniciar --> "1" Paciente
link Paciente "https://github.com/chris-f23/diagramas-fhir-tei/blob/main/docs/bundle-iniciar/Paciente.mmd"

BundleIniciar --> "1" CondicionDiagnosticoInicial
link CondicionDiagnosticoInicial "https://github.com/chris-f23/diagramas-fhir-tei/blob/main/docs/bundle-iniciar/CondicionDiagnosticoInicial.mmd"


BundleIniciar --> "0..1" Observacion: Comorbilidad
BundleIniciar --> "0..1" Observacion: Discapacidad
BundleIniciar --> "0..1" Observacion: Cuidador
BundleIniciar --> "*" Observacion: Resultado examen
link Observacion "https://github.com/chris-f23/diagramas-fhir-tei/blob/main/docs/bundle-iniciar/Observacion.mmd"

BundleIniciar --> "*" AlergiaOIntolerancia
link AlergiaOIntolerancia "https://github.com/chris-f23/diagramas-fhir-tei/blob/main/docs/bundle-iniciar/AlergiaOIntolerancia.mmd"

BundleIniciar --> "1" RolProfesional
link RolProfesional "https://github.com/chris-f23/diagramas-fhir-tei/blob/main/docs/bundle-iniciar/RolProfesional.mmd"

BundleIniciar --> "1" Profesional
link Profesional "https://github.com/chris-f23/diagramas-fhir-tei/blob/main/docs/bundle-iniciar/Profesional.mmd"

BundleIniciar --> "1" EstablecimientoSalud
link EstablecimientoSalud "https://github.com/chris-f23/diagramas-fhir-tei/blob/main/docs/bundle-iniciar/EstablecimientoSalud.mmd"

BundleIniciar --> "0..1" MotivoDerivacion
link MotivoDerivacion "https://github.com/chris-f23/diagramas-fhir-tei/blob/main/docs/bundle-iniciar/MotivoDerivacion.mmd"

BundleIniciar --> "*" SolicitudExamen
link SolicitudExamen "https://github.com/chris-f23/diagramas-fhir-tei/blob/main/docs/bundle-iniciar/SolicitudExamen.mmd"
