---
config:
  layout: elk
  theme: base
  class:
    hideEmptyMembersBox: true
  themeVariables:
    primaryBorderColor: "#000000"
    primaryColor: "#C9E6F0"
---

classDiagram
direction TB

class SolicitudExamen {
  id : UUID

  %% Texto libre obligatorio para describir los exámenes solicitados.
  descripcion: VARCHAR

  %% Fecha en que se emite la solicitud.
  fechaSolicitud: DATETIME

  %% Fecha en la que ocurrirá el examen.
  fechaProgramada: DATETIME NULL

  %% Texto libre obligatorio para indicar el motivo de la solicitud.
  motivo: VARCHAR
  
  %% Comentario opcional. Admite formato MARKDOWN.
  comentario: VARCHAR NULL
}

class CodigoMotivoSolicitudExamen {
  <<ValueSet>>
}

class CodigoExamen {
  <<ValueSet>>
}
link CodigoExamen "https://build.fhir.org/ig/Minsal-CL/SIGTEv2-IG/ValueSet-CodigoExamen.html"
style CodigoExamen fill:#FFE6A5

SolicitudExamen --> "*" CodigoExamen
SolicitudExamen --> "1" CodigoMotivoSolicitudExamen

link CodigoMotivoSolicitudExamen "https://hl7.org/fhir/R4/valueset-procedure-reason.html"
style CodigoMotivoSolicitudExamen fill:#FFE6A5
