---
config:
  layout: elk
  theme: base
  class:
    hideEmptyMembersBox: true
  themeVariables:
    primaryBorderColor: "#000000"
    primaryColor: "#C9E6F0"
---

classDiagram
direction LR

BundlePriorizar --> "1" CabeceraMensaje
link CabeceraMensaje "https://github.com/chris-f23/diagramas-fhir-tei/blob/main/docs/CabeceraMensaje.mmd"

BundlePriorizar --> "1" SolicitudInterconsulta
link SolicitudInterconsulta "https://github.com/chris-f23/diagramas-fhir-tei/blob/main/docs/SolicitudInterconsulta.mmd"

BundlePriorizar --> "1..2" RolPrestacion: Priorizador(es?)
link RolPrestacion "https://github.com/chris-f23/diagramas-fhir-tei/blob/main/docs/RolPrestacion.mmd"

BundlePriorizar --> "1" PrestadorProfesional: Priorizador
link PrestadorProfesional "https://github.com/chris-f23/diagramas-fhir-tei/blob/main/docs/Prestador.mmd"

BundlePriorizar --> "1..2" EstablecimientoSalud: Priorizador(es?)
link EstablecimientoSalud "https://github.com/chris-f23/diagramas-fhir-tei/blob/main/docs/EstablecimientoSalud.mmd"

link SolicitudExamen "https://github.com/chris-f23/diagramas-fhir-tei/blob/main/docs/SolicitudExamen.mmd"
note for BundlePriorizar "En que casos podría ocurrir que
hayan 2 roles priorizadores y 2 establecimientos priorizadores,
pero solo 1 profesional priorizador?"

%% RolPrestacion ..> "1" EstablecimientoSalud
%% RolPrestacion ..> "1" Profesional

%% SolicitudInterconsulta ..> "1" Paciente: Subject
%% SolicitudInterconsulta ..> "0..1" AtencionInicial: Encounter
%% SolicitudInterconsulta ..> "0..1" RolPrestacion: Requester


%% AtencionInicial ..> "1" Paciente: Subject
%% AtencionInicial ..> "1" CondicionDiagnostico: Diagnostico de inicio



%% SolicitudInterconsulta ..> "0..1" CondicionDiagnostico: Diagnostico de inicio
%% SolicitudInterconsulta ..> "*" AlergiaOIntolerancia: Alergias
%% SolicitudInterconsulta ..> "0..1" Observacion: Indice de comorbilidad
%% SolicitudInterconsulta ..> "0..1" Observacion: Es cuidador
%% SolicitudInterconsulta ..> "0..1" Observacion: Tiene discapacidad
%% SolicitudInterconsulta ..> "0..1" MotivoDerivacion: Motivo de derivación
%% SolicitudInterconsulta ..> "*" SolicitudExamen: Solicitudes de examenes
%% SolicitudInterconsulta ..> "*" Observacion: Resultados de examenes