---
config:
  layout: elk
  theme: base
  class:
    hideEmptyMembersBox: true
  themeVariables:
    primaryBorderColor: "#000000"
    primaryColor: "#C9E6F0"
---

classDiagram
direction LR

BundleAgendar --> "1" CabeceraMensaje
link CabeceraMensaje "https://github.com/chris-f23/diagramas-fhir-tei/blob/main/docs/CabeceraMensaje.mmd"


BundleAgendar --> "1" SolicitudInterconsulta
link SolicitudInterconsulta "https://github.com/chris-f23/diagramas-fhir-tei/blob/main/docs/SolicitudInterconsulta.mmd"

BundleAgendar --> "1" PrestadorAdministrativo: Agendador
link SolicitudInterconsulta "https://github.com/chris-f23/diagramas-fhir-tei/blob/main/docs/Prestador.mmd"

BundleAgendar --> "1" RolPrestacion: Agendador
BundleAgendar --> "1" RolPrestacion: Atendedor
link RolPrestacion "https://github.com/chris-f23/diagramas-fhir-tei/blob/main/docs/RolPrestacion.mmd"

BundleAgendar --> "1" PrestadorProfesional: Atendedor
link PrestadorProfesional "https://github.com/chris-f23/diagramas-fhir-tei/blob/main/docs/Prestador.mmd"

BundleAgendar --> "1" EstablecimientoSalud: Agendador/Atendador
link EstablecimientoSalud "https://github.com/chris-f23/diagramas-fhir-tei/blob/main/docs/EstablecimientoSalud.mmd"


BundleAgendar --> "1" Cita
link Cita "https://github.com/chris-f23/diagramas-fhir-tei/blob/main/docs/Cita.mmd"

%% RolPrestacion ..> "1" EstablecimientoSalud
%% RolPrestacion ..> "1" Profesional

%% SolicitudInterconsulta ..> "1" Paciente: Subject
%% SolicitudInterconsulta ..> "0..1" AtencionInicial: Encounter
%% SolicitudInterconsulta ..> "0..1" RolPrestacion: Requester


%% AtencionInicial ..> "1" Paciente: Subject
%% AtencionInicial ..> "1" CondicionDiagnostico: Diagnostico de inicio



%% SolicitudInterconsulta ..> "0..1" CondicionDiagnostico: Diagnostico de inicio
%% SolicitudInterconsulta ..> "*" AlergiaOIntolerancia: Alergias
%% SolicitudInterconsulta ..> "0..1" Observacion: Indice de comorbilidad
%% SolicitudInterconsulta ..> "0..1" Observacion: Es cuidador
%% SolicitudInterconsulta ..> "0..1" Observacion: Tiene discapacidad
%% SolicitudInterconsulta ..> "0..1" MotivoDerivacion: Motivo de derivación
%% SolicitudInterconsulta ..> "*" SolicitudExamen: Solicitudes de examenes
%% SolicitudInterconsulta ..> "*" Observacion: Resultados de examenes