---
config:
  layout: elk
  theme: base
  class:
    hideEmptyMembersBox: true
  themeVariables:
    primaryBorderColor: "#000000"
    primaryColor: "#C9E6F0"
---

classDiagram
direction LR

BundleAtender --> "1" CabeceraMensaje
link CabeceraMensaje "https://github.com/chris-f23/diagramas-fhir-tei/blob/main/docs/CabeceraMensaje.mmd"

BundleAtender --> "1" SolicitudInterconsulta
link SolicitudInterconsulta "https://github.com/chris-f23/diagramas-fhir-tei/blob/main/docs/SolicitudInterconsulta.mmd"

BundleAtender --> "0..1" Prestador: Terminador
link Prestador "https://github.com/chris-f23/diagramas-fhir-tei/blob/main/docs/Prestador.mmd"

BundleAtender --> "1" RolPrestacion: Terminador
link RolPrestacion "https://github.com/chris-f23/diagramas-fhir-tei/blob/main/docs/RolPrestacion.mmd"

BundleAtender --> "1" EstablecimientoSalud: Terminador
link EstablecimientoSalud "https://github.com/chris-f23/diagramas-fhir-tei/blob/main/docs/EstablecimientoSalud.mmd"