---
config:
  layout: elk
  theme: base
  class:
    hideEmptyMembersBox: true
  themeVariables:
    primaryBorderColor: "#000000"
    primaryColor: "#C9E6F0"
---

classDiagram
direction LR

class Cita {
  id : UUID
  pacienteFueContactado : BIT
  detalleNoContactabilidad : VARCHAR NULL

  fechaInicio: DATETIME
  fechaFin: DATETIME

  fechaCreacion: DATETIME
}





class CodigoMedioContactoCita { <<ValueSet>> }
style CodigoMedioContactoCita fill:#FFE6A5
link CodigoMedioContactoCita "https://build.fhir.org/ig/Minsal-CL/SIGTEv2-IG/ValueSet-VSMediodeContacto.html"

Cita --> "0..1" CodigoMedioContactoCita


class CodigoMotivoNoContactabilidadCita { <<ValueSet>> }
style CodigoMotivoNoContactabilidadCita fill:#FFE6A5
link CodigoMotivoNoContactabilidadCita "https://build.fhir.org/ig/Minsal-CL/SIGTEv2-IG/ValueSet-VSMotivoNoContactabilidad.html"

Cita --> "0..1" CodigoMotivoNoContactabilidadCita


class CodigoEstadoCita { <<ValueSet>> }
style CodigoEstadoCita fill:#FFE6A5
link CodigoEstadoCita "https://hl7.org/fhir/R4/valueset-appointmentstatus.html"

Cita --> "1" CodigoEstadoCita


class CodigoMotivoCancelacionCita { <<ValueSet>> }
style CodigoMotivoCancelacionCita fill:#FFE6A5
link CodigoMotivoCancelacionCita "https://hl7.org/fhir/R4/valueset-appointment-cancellation-reason.html"

Cita --> "0..1" CodigoMotivoCancelacionCita

class CodigoTipoCita { <<ValueSet>> }
style CodigoTipoCita fill:#FFE6A5
link CodigoTipoCita "https://terminology.hl7.org/6.1.0/ValueSet-v2-0276.html"

Cita --> "0..1" CodigoTipoCita




%% class CodigoEstadoParticipacionCita { <<ValueSet>> }
%% style CodigoEstadoParticipacionCita fill:#FFE6A5
%% link CodigoEstadoParticipacionCita "https://hl7.org/fhir/R4/valueset-participationstatus.html"

%% Cita --> "0..1" CodigoEstadoParticipacionCita
