---
config:
  layout: elk
  theme: base
  class:
    hideEmptyMembersBox: true
  themeVariables:
    primaryBorderColor: "#000000"
    primaryColor: "#C9E6F0"
---

classDiagram
direction TB

class RolPrestacion {
  id: UUID
}
class CodigoTipoRolPrestador { <<ValueSet>> }


RolPrestacion ..> "0..1" EstablecimientoSalud
RolPrestacion ..> "0..1" Prestador

link CodigoTipoRolPrestador "https://build.fhir.org/ig/Minsal-CL/SIGTEv2-IG/ValueSet-VSPractitionerTipoRolLE.html"
style CodigoTipoRolPrestador fill:#FFE6A5
RolPrestacion --> "1" CodigoTipoRolPrestador
