---
config:
  layout: elk
  theme: base
  class:
    hideEmptyMembersBox: true
  themeVariables:
    primaryBorderColor: "#000000"
    primaryColor: "#C9E6F0"
---

classDiagram
direction LR

class SolicitudMedicamento {
  id : UUID

  codigoMedicamento : JSON~CodeableConcept~

  comentario : VARCHAR NULL
  
  instruccionesDosis : VARCHAR NULL
}


class CodigoEstadoSolicitudMedicamento { <<ValueSet>> }
style CodigoEstadoSolicitudMedicamento fill:#FFE6A5
link CodigoEstadoSolicitudMedicamento "https://hl7.org/fhir/R4/valueset-medicationrequest-status.html"
SolicitudMedicamento --> "1" CodigoEstadoSolicitudMedicamento

class CodigoPropositoSolicitudMedicamento { <<ValueSet>> }
style CodigoPropositoSolicitudMedicamento fill:#FFE6A5
link CodigoPropositoSolicitudMedicamento "https://hl7.org/fhir/R4/valueset-medicationrequest-intent.html"
SolicitudMedicamento --> "1" CodigoPropositoSolicitudMedicamento


