---
config:
  layout: elk
  theme: base
  class:
    hideEmptyMembersBox: true
  themeVariables:
    primaryBorderColor: "#000000"
    primaryColor: "#C9E6F0"
---

classDiagram
direction LR

class SolicitudInterconsulta {
  id : UUID
  fechaSolicitud : DATETIME
  requiereExamen : BIT NULL
  esAtencionPreferente : BIT NULL
  esGES : BIT NULL
  esPosibleResolverEnAPS : BIT NULL
  esAlergico : BIT NULL
  fundamentoPriorizacion : VARCHAR NULL
  motivoNoPertinencia : VARCHAR NULL
}

class IdentificadorSolicitudInterconsulta {
  codigoUso: 'usual' | 'official' | 'temp' | 'secondary' | 'old' | NULL
  valor: VARCHAR NULL
}

SolicitudInterconsulta --> "*" IdentificadorSolicitudInterconsulta

class PertinenciaInterconsulta { <<ValueSet>> }
style PertinenciaInterconsulta fill:#FFE6A5

class ModalidadAtencion { <<ValueSet>> }
style ModalidadAtencion fill:#FFE6A5

class PrioridadSolicitud { <<ValueSet>> }
style PrioridadSolicitud fill:#FFE6A5

class ReferenciaOrigen { <<ValueSet>> }
style ReferenciaOrigen fill:#FFE6A5

class ReferenciaDestino { <<ValueSet>> }
style ReferenciaDestino fill:#FFE6A5


class MotivoCierreInterconsulta { <<ValueSet>> }
style MotivoCierreInterconsulta fill:#FFE6A5

class EstadoInterconsulta { <<ValueSet>> }
style EstadoInterconsulta fill:#FFE6A5

class EspecialidadMedicaDestino { <<ValueSet>> }
style EspecialidadMedicaDestino fill:#FFE6A5


SolicitudInterconsulta --> "0..1" PertinenciaInterconsulta
SolicitudInterconsulta --> "0..1" PrioridadSolicitud
SolicitudInterconsulta --> "0..1" ReferenciaOrigen
SolicitudInterconsulta --> "0..1" ModalidadAtencion
SolicitudInterconsulta --> "0..1" ReferenciaDestino
SolicitudInterconsulta --> "0..1" MotivoCierreInterconsulta
SolicitudInterconsulta --> "0..1" EstadoInterconsulta
SolicitudInterconsulta --> "0..1" EspecialidadMedicaDestino: Especialidad
SolicitudInterconsulta --> "0..1" EspecialidadMedicaDestino: Subespecialidad

link PertinenciaInterconsulta "https://build.fhir.org/ig/Minsal-CL/SIGTEv2-IG/ValueSet-VSPertinenciaInterconsulta.html"
link ModalidadAtencion "https://build.fhir.org/ig/Minsal-CL/SIGTEv2-IG/ValueSet-VSModalidadAtencionCodigo.html"
link PrioridadSolicitud "https://hl7.org/fhir/R4/valueset-request-priority.html"
link ReferenciaOrigen "https://build.fhir.org/ig/Minsal-CL/SIGTEv2-IG/ValueSet-VSorigenInterconsulta.html"
link ReferenciaDestino "https://build.fhir.org/ig/Minsal-CL/SIGTEv2-IG/ValueSet-VSDestinoReferenciaCodigo.html"
link MotivoCierreInterconsulta "https://build.fhir.org/ig/Minsal-CL/SIGTEv2-IG/ValueSet-VSMotivoCierreInterconsulta.html"
link EstadoInterconsulta "https://build.fhir.org/ig/Minsal-CL/SIGTEv2-IG/ValueSet-VSEstadoInterconsulta.html"
link EspecialidadMedicaDestino "https://build.fhir.org/ig/Minsal-CL/SIGTEv2-IG/ValueSet-VsEspecialidadDest.html"
